<svg height="511.99998pt" viewBox="1 1 511.99998 511.99998" width="511.99998pt" xmlns="http://www.w3.org/2000/svg"><path d="m256 512c-141.386719 0-256-114.617188-256-256s114.613281-256 256-256 256 114.613281 256 256c-.167969 141.316406-114.683594 255.832031-256 256zm0-480c-123.710938 0-224 100.289062-224 224s100.289062 224 224 224 224-100.289062 224-224c-.132812-123.65625-100.34375-223.867188-224-224zm0 0"/><path d="m176 384c-4.242188 0-8.3125-1.6875-11.3125-4.6875l-64-64c-6.140625-6.355469-5.960938-16.484375.394531-22.625 6.199219-5.988281 16.027344-5.988281 22.230469 0l52.6875 52.6875 197.824219-197.824219c6.355469-6.136719 16.484375-5.960937 22.621093.394531 5.988282 6.199219 5.988282 16.03125 0 22.230469l-209.132812 209.136719c-3 3-7.070312 4.6875-11.3125 4.6875zm0 0"/></svg>